# xmcd
#
# Track frame offsets: 
#        150
#        10868
#        19496
#        30656
#        40407
#        52709
#        64441
#        77652
#        89959
#        103694
#        114975
#        127925
#        137912
#        148904
#        158720
#        170173
#        180475
#        191499
#        201062
#        211685
#        221811
#        231523
#        241949
#        256596
#        266872
#        276296
#        288523
#        302621
#        313873
#        324548
#        336699
#        349224
#
# Disc length: 4794 seconds
#
# Revision: 0
# Processed by: cddbd v1.5.2PL0 Copyright (c) Steve Scherf et al.
# Submitted via: ExactAudioCopy v0.99pb4
#
DISCID=f112b820
DTITLE=Various Artist - The World Is A Monster
DYEAR=1900
DGENRE=Country
TTITLE0=Rocky Porter - The World Is A Monster
TTITLE1=Johnny Bond and His Red River Valley Boys - All I Can Do Is Cr
TTITLE1=y
TTITLE2=Andy Reynolds and His 101 Ranch Boys - Beer Bottle Mama
TTITLE3=Neal Jones - I'm Playing It Cool
TTITLE4=Johnny Hicks - Pick Up Blues
TTITLE5=Freddie Hart - Blue
TTITLE6=Billy Walker - The Record
TTITLE7=Johnny Hicks - Rainy Night Blues
TTITLE8=Bobby Lord - I'm The Devil Who Made Her That Way
TTITLE9=Jimmy Johnson - Throwing My Life Away
TTITLE10=Paul Howard and His Cotton Pickers - Drinking All My Troubles A
TTITLE10=way
TTITLE11=Carl Story - What A Line
TTITLE12=Little Jimmy Dickens - Me And My Big Loud Mouth
TTITLE13=The Maddox Brothers - Ugly And Slouchy
TTITLE14=Billy Walker - I Can't Keep The Girls Away
TTITLE15=George Morgan - A Shot In The Dark
TTITLE16=Jimmy Littlejohn - No Parking Here
TTITLE17=Jimmy Murphy - Here Kitty Kitty
TTITLE18=Smiley Maxedon - Red Hot Mama And An Ice Cold Beer
TTITLE19=The Tunesmiths - Oh Stop!
TTITLE20=Frankie Miller - Hey! Where Ya Goin
TTITLE21=Charlie Adams - I'm A Railroad Daddy
TTITLE22=Polly Possum and Joe Wolverton with The Dog Patch Boys - Don'
TTITLE22=t Talk To Me About Men
TTITLE23=Charlie Adams - Pistol Packin' Mama Laid Her Pistol Down
TTITLE24=Ray Price - Much Too Young To Die
TTITLE25=Carl Smith - There's A Bottle Where She Used To Be
TTITLE26=Chuck Wells - The Barroom Girl
TTITLE27=Jimmy Johnson - I've Lived A Lot In My Time
TTITLE28=The Country Boys - Buddy's Boogie
TTITLE29=Jack Rhodes and His Lone Star Buddies - Eternity
TTITLE30=Freddie Hart - The Wall
TTITLE31=Rose Maddox - When The Sun Goes Down
EXTD=
EXTT0=
EXTT1=
EXTT2=
EXTT3=
EXTT4=
EXTT5=
EXTT6=
EXTT7=
EXTT8=
EXTT9=
EXTT10=
EXTT11=
EXTT12=
EXTT13=
EXTT14=
EXTT15=
EXTT16=
EXTT17=
EXTT18=
EXTT19=
EXTT20=
EXTT21=
EXTT22=
EXTT23=
EXTT24=
EXTT25=
EXTT26=
EXTT27=
EXTT28=
EXTT29=
EXTT30=
EXTT31=
PLAYORDER=
